<svg xmlns="http://www.w3.org/2000/svg" viewBox="0 0 512 512">
  <rect width="512" height="512" rx="96" fill="#0a0a0a"/>
  <line x1="18"  y1="200" x2="152" y2="192" stroke="#22d3ee" stroke-width="11" stroke-linecap="round" opacity="0.65"/>
  <line x1="8"   y1="235" x2="145" y2="228" stroke="#22d3ee" stroke-width="8"  stroke-linecap="round" opacity="0.42"/>
  <line x1="22"  y1="268" x2="148" y2="262" stroke="#22d3ee" stroke-width="5"  stroke-linecap="round" opacity="0.24"/>
  <line x1="18"  y1="410" x2="152" y2="418" stroke="#22d3ee" stroke-width="8"  stroke-linecap="round" opacity="0.32"/>
  <line x1="8"   y1="445" x2="145" y2="450" stroke="#22d3ee" stroke-width="5"  stroke-linecap="round" opacity="0.2"/>
  <g stroke="#a3e635" stroke-linecap="round" stroke-linejoin="round" fill="none">
    <circle cx="300" cy="86" r="46" fill="#a3e635" stroke="none"/>
    <line x1="290" y1="130" x2="256" y2="295" stroke-width="52"/>
    <line x1="282" y1="158" x2="362" y2="112" stroke-width="26"/>
    <line x1="362" y1="112" x2="410" y2="96"  stroke-width="24"/>
    <line x1="268" y1="162" x2="200" y2="202" stroke-width="26"/>
    <line x1="200" y1="202" x2="182" y2="252" stroke-width="24"/>
    <line x1="272" y1="294" x2="316" y2="378" stroke-width="32"/>
    <line x1="316" y1="378" x2="302" y2="448" stroke-width="30"/>
    <line x1="290" y1="452" x2="378" y2="450" stroke-width="26"/>
    <line x1="255" y1="294" x2="188" y2="368" stroke-width="32"/>
    <line x1="188" y1="368" x2="166" y2="428" stroke-width="30"/>
    <line x1="158" y1="435" x2="198" y2="418" stroke-width="24"/>
  </g>
</svg>
